<?xml version="1.0" encoding="UTF-8" standalone="no"?>
<!-- Uploaded to: SVG Repo, www.svgrepo.com, Generator: SVG Repo Mixer Tools -->

<svg
   width="800"
   height="800"
   viewBox="-4 0 264 264"
   version="1.1"
   preserveAspectRatio="xMidYMid"
   id="svg5"
   xml:space="preserve"
   xmlns:xlink="http://www.w3.org/1999/xlink"
   xmlns="http://www.w3.org/2000/svg"
   xmlns:svg="http://www.w3.org/2000/svg"><defs
     id="defs5"><pattern
       xlink:href="#pattern121"
       preserveAspectRatio="xMidYMid"
       id="pattern122"
       patternTransform="matrix(0.14488887,-0.03882286,0.03882286,0.14488887,-411.91374,502.14511)"
       x="-32"
       y="-81" /><pattern
       patternUnits="userSpaceOnUse"
       width="334.07609"
       height="334.07609"
       patternTransform="translate(-411.91374,502.14511)"
       preserveAspectRatio="xMidYMid"
       id="pattern121"
       style="fill:#84a9e5"><rect
         style="fill:#69d7e2;fill-opacity:1;fill-rule:nonzero;stroke:none;stroke-width:4.28548;stroke-dasharray:none;stroke-opacity:1"
         id="rect117"
         width="334.07608"
         height="334.07608"
         x="0"
         y="0" /><g
         id="g121"
         transform="matrix(3.030303,0,0,3.030303,426.50701,-498.84143)"><path
           d="m -138.5268,265.02409 c -1e-5,-3.97125 3.21974,-7.19101 7.19092,-7.19101 3.97118,0 7.19092,3.21977 7.19093,7.191 0,3.97123 -3.21975,7.19099 -7.19093,7.191 -3.97119,0 -7.19092,-3.21977 -7.19092,-7.19099 z m 50.336437,7.19099 h -9.587293 c -7e-6,-22.47008 -18.279314,-40.74958 -40.749144,-40.74959 v -9.58739 c 27.75515,0 50.336437,22.58153 50.336472,50.33695 z m -16.778747,-10e-6 -9.5873,10e-6 c 0,-13.21705 -10.75402,-23.96939 -23.97086,-23.96946 v -9.58921 c 18.50402,2e-5 33.55822,15.05437 33.55822,33.55861 z"
           id="path117"
           style="display:inline;fill:#ffffff;fill-rule:evenodd;stroke:none;stroke-width:0.824667;stroke-dasharray:none;stroke-opacity:1" /><path
           d="m -83.058714,265.02409 c -1e-5,-3.97125 3.21974,-7.19101 7.19092,-7.19101 3.97118,0 7.19092,3.21977 7.19093,7.191 0,3.97123 -3.21975,7.19099 -7.19093,7.191 -3.97119,0 -7.19092,-3.21977 -7.19092,-7.19099 z m 50.336437,7.19099 h -9.587293 c -7e-6,-22.47008 -18.279314,-40.74958 -40.749144,-40.74959 v -9.58739 c 27.75515,0 50.336437,22.58153 50.336472,50.33695 z m -16.778747,-10e-6 -9.5873,10e-6 c 0,-13.21705 -10.75402,-23.96939 -23.97086,-23.96946 v -9.58921 c 18.50402,2e-5 33.55822,15.05437 33.55822,33.55861 z"
           id="path119"
           style="display:inline;fill:#ffffff;fill-rule:evenodd;stroke:none;stroke-width:0.824667;stroke-dasharray:none;stroke-opacity:1" /><path
           d="m -138.5268,210.41137 c -1e-5,-3.97125 3.21974,-7.19101 7.19092,-7.19101 3.97118,0 7.19092,3.21977 7.19093,7.191 0,3.97123 -3.21975,7.19099 -7.19093,7.191 -3.97119,0 -7.19092,-3.21977 -7.19092,-7.19099 z m 50.336437,7.19099 h -9.587293 c -7e-6,-22.47008 -18.279314,-40.74958 -40.749144,-40.74959 v -9.58739 c 27.75515,0 50.336437,22.58153 50.336472,50.33695 z m -16.778747,-1e-5 -9.5873,1e-5 c 0,-13.21705 -10.75402,-23.96939 -23.97086,-23.96946 v -9.58921 c 18.50402,2e-5 33.55822,15.05437 33.55822,33.55861 z"
           id="path120"
           style="display:inline;fill:#ffffff;fill-rule:evenodd;stroke:none;stroke-width:0.824667;stroke-dasharray:none;stroke-opacity:1" /><path
           d="m -83.058714,210.41144 c -1e-5,-3.97125 3.21974,-7.19101 7.19092,-7.19101 3.97118,0 7.19092,3.21977 7.19093,7.191 0,3.97123 -3.21975,7.19099 -7.19093,7.191 -3.97119,0 -7.19092,-3.21977 -7.19092,-7.19099 z m 50.336437,7.19099 h -9.587293 c -7e-6,-22.47008 -18.279314,-40.74958 -40.749144,-40.74959 v -9.58739 c 27.75515,0 50.336437,22.58153 50.336472,50.33695 z m -16.778747,-1e-5 -9.5873,1e-5 c 0,-13.21705 -10.75402,-23.96939 -23.97086,-23.96946 v -9.58921 c 18.50402,2e-5 33.55822,15.05437 33.55822,33.55861 z"
           id="path121"
           style="display:inline;fill:#ffffff;fill-rule:evenodd;stroke:none;stroke-width:0.824667;stroke-dasharray:none;stroke-opacity:1" /></g></pattern></defs><g
     id="g5"
     style="stroke-width:0.9999;stroke-dasharray:none"><path
       d="m 255.00793,158.08562 c -1.53482,-4.64821 -5.55574,-7.88634 -10.75614,-8.6638 -2.45181,-0.36597 -5.26012,-0.20989 -8.5828,0.47534 -5.79163,1.19487 -10.08865,1.64952 -13.2245,1.7382 11.8363,-19.98514 21.46143,-42.77565 27.00238,-64.228801 8.95941,-34.688296 4.17168,-50.491123 -1.42307,-57.639612 C 233.21718,10.847778 211.61445,0.68345497 185.55152,0.37187991 171.64948,0.20219861 159.44366,2.9472517 153.07736,4.9207575 147.14915,3.8754734 140.77458,3.2913441 134.08606,3.1831501 121.55034,2.9833164 110.47316,5.7159538 101.00826,11.332582 95.767058,9.5612748 87.358079,7.0633533 77.646042,5.4688222 54.80351,1.7186882 36.393977,4.6411085 22.928259,14.153903 6.6223002,25.672129 -0.93709007,45.68388 0.46115473,73.633995 0.90457275,82.508268 5.8690808,109.50769 13.685062,135.1142 c 4.49212,14.71734 9.282217,26.93971 14.237266,36.32953 7.026697,13.31496 14.545293,21.15636 22.986199,23.97177 4.731565,1.5768 13.327371,2.68002 22.36896,-4.84863 1.145792,1.38702 2.674107,2.76634 4.703779,4.04693 2.576554,1.62528 5.727778,2.95316 8.874272,3.74008 11.341451,2.83551 21.964562,2.12605 31.027442,-1.84757 0.0556,1.61168 0.0987,3.15181 0.13539,4.48148 0.0603,2.15737 0.11942,4.27218 0.19865,6.24983 0.53683,13.37467 1.44672,23.77371 4.1427,31.04931 0.14781,0.40085 0.34705,1.0104 0.55753,1.65661 1.34444,4.11846 3.59405,11.01214 9.31532,16.41179 5.92584,5.59238 13.09266,7.30812 19.65643,7.30752 3.29193,0 6.43311,-0.43159 9.18762,-1.02222 9.82082,-2.10417 20.97367,-5.31097 29.04151,-16.79845 7.62738,-10.86019 11.33554,-27.217 12.00658,-52.99082 0.0869,-0.72839 0.16732,-1.42426 0.24477,-2.08761 0.052,-0.44756 0.10524,-0.90516 0.15904,-1.36159 l 1.79732,0.15786 0.46293,0.0313 c 10.00233,0.45584 22.23238,-1.66548 29.74329,-5.15429 5.9353,-2.75451 24.9538,-12.79468 20.47587,-26.35144"
       fill="#000000"
       id="path1"
       style="display:inline;stroke-width:0.9999;stroke-dasharray:none" /><path
       d="m 237.90559,160.72248 c -29.73975,6.13454 -31.7842,-3.9346 -31.7842,-3.9346 C 237.52188,110.1947 250.64824,51.051603 239.32039,36.576665 208.41711,-2.908231 154.92198,15.76558 154.02923,16.250383 l -0.28734,0.05144 c -5.87558,-1.219695 -12.45117,-1.94631 -19.84147,-2.066919 -13.45685,-0.220527 -23.66434,3.527833 -31.40996,9.401644 0,0 -95.4300628,-39.313441 -90.991744,49.444065 0.944185,18.882512 27.063871,142.873417 58.21842,105.422337 11.386975,-13.69453 22.389063,-25.27365 22.389063,-25.27365 5.464683,3.63012 12.006581,5.48183 18.864771,4.8167 l 0.5327,-0.45228 c -0.16554,1.70036 -0.0899,3.36347 0.21343,5.33225 -8.02587,8.96709 -5.66747,10.54152 -21.71152,13.8441 -16.234421,3.34574 -6.697386,9.30232 -0.470615,10.85901 7.548749,1.88778 25.012915,4.56188 36.813155,-11.95691 l -0.47061,1.88482 c 3.14472,2.51861 5.35294,16.38341 4.98283,28.95165 -0.3701,12.56883 -0.61724,21.19774 1.86058,27.9377 2.47782,6.73995 4.94737,21.90485 26.03869,17.38553 17.6238,-3.77674 26.75644,-13.56386 28.02698,-29.88933 0.90161,-11.60632 2.94193,-9.89059 3.07081,-20.26716 l 1.63651,-4.91248 c 1.88719,-15.73306 0.29975,-20.80872 11.15758,-18.44796 l 2.63863,0.23176 c 7.99158,0.3636 18.45092,-1.28532 24.5896,-4.13857 13.21859,-6.13454 21.05822,-16.37691 8.02469,-13.68565 h 10e-4"
       fill="#336791"
       id="path2"
       style="display:inline;fill:url(#pattern122);fill-opacity:1;fill-rule:evenodd;stroke-width:0.9999;stroke-dasharray:none" /><path
       d="m 108.07634,81.525062 c -2.67942,-0.373062 -5.10699,-0.02779 -6.33496,0.901617 -0.69114,0.523233 -0.90458,1.129238 -0.96192,1.546642 -0.15431,1.104998 0.62019,2.326466 1.09553,2.956711 1.34563,1.783723 3.31204,3.009922 5.25835,3.280111 0.28201,0.03902 0.56225,0.05794 0.84131,0.05794 3.24582,0 6.19603,-2.526891 6.45617,-4.392203 0.32517,-2.335926 -3.06609,-3.89321 -6.35448,-4.350818"
       fill="#ffffff"
       id="path3"
       style="stroke-width:0.9999;stroke-dasharray:none" /><path
       d="m 196.86045,81.598965 h -5.9e-4 c -0.25541,-1.83102 -3.51423,-2.353071 -6.60634,-1.923251 -3.08737,0.430411 -6.08192,1.823926 -5.83183,3.659085 0.20102,1.427215 2.77698,3.863649 5.8277,3.863058 0.25718,0 0.51732,-0.01715 0.77923,-0.0538 2.03617,-0.282013 3.5302,-1.57502 4.23967,-2.320554 1.08134,-1.13515 1.70627,-2.401552 1.59216,-3.224536"
       fill="#ffffff"
       id="path4"
       style="stroke-width:0.9999;stroke-dasharray:none" /><path
       d="m 247.80209,160.02542 c -1.13397,-3.4291 -4.7836,-4.53291 -10.84778,-3.28011 -18.00514,3.71584 -24.45303,1.14165 -26.57079,-0.4174 13.99545,-21.32072 25.50836,-47.09159 31.71917,-71.137259 2.94252,-11.38993 4.5678,-21.967519 4.70023,-30.588748 0.14662,-9.464314 -1.46446,-16.4177 -4.78892,-20.665644 C 228.61155,16.810864 208.94211,7.6250162 185.13175,7.3725635 168.76312,7.1886928 154.93321,11.378106 152.25201,12.555825 146.60582,11.151667 140.45059,10.289663 133.75024,10.179695 121.46165,9.9810439 110.84031,12.922975 102.04586,18.919169 98.225958,17.497866 88.3537,14.10897 76.281497,12.164434 55.408924,8.8033256 38.823316,11.349728 26.987012,19.735058 12.863852,29.740933 6.3438337,47.626642 7.6072794,72.894374 c 0.4250901,8.501801 5.2683976,34.653416 12.9129236,59.698846 10.062042,32.96369 20.999095,51.62509 32.507862,55.46332 1.346808,0.44933 2.900545,0.76386 4.612729,0.76386 4.198282,0 9.344887,-1.89251 14.700194,-8.33035 8.894966,-10.70115 17.19989,-19.66825 20.261248,-22.92648 4.524046,2.42874 9.493284,3.78442 14.577224,3.9204 0.009,0.13303 0.0225,0.26605 0.0343,0.39849 -1.01987,1.20964 -1.85645,2.26971 -2.56946,3.17487 -3.52192,4.47084 -4.25504,5.40142 -15.592355,7.73617 -3.224536,0.66512 -11.79078,2.43052 -11.915528,8.4344 -0.136573,6.55963 10.12412,9.31473 11.293561,9.6068 4.074124,1.01986 7.998669,1.52299 11.741712,1.52299 9.10366,-5.9e-4 17.11416,-2.99218 23.51652,-8.78086 -0.19747,23.38587 0.77805,46.43001 3.58578,53.45138 2.29927,5.74729 7.91767,19.79477 25.66444,19.79359 2.60316,0 5.47,-0.30271 8.623,-0.97847 18.52069,-3.97126 26.56311,-12.15675 29.67472,-30.20328 1.66488,-9.64463 4.52227,-32.67636 5.86553,-45.02998 2.8361,0.88447 6.4875,1.28946 10.43451,1.28887 8.23221,0 17.73081,-1.74884 23.68799,-4.514 6.69147,-3.10747 18.76781,-10.73426 16.57792,-17.35952 z m -44.1059,-83.480829 c -0.0615,3.647261 -0.56344,6.958116 -1.09554,10.414411 -0.57231,3.717026 -1.16472,7.559982 -1.3137,12.225331 -0.14722,4.540007 0.41977,9.260337 0.96842,13.824587 1.10796,9.21955 2.24488,18.71165 -2.15678,28.07782 -0.68405,-1.21496 -1.34445,-2.54049 -1.94986,-4.0085 -0.54688,-1.32611 -1.73465,-3.45629 -3.37885,-6.40473 -6.3994,-11.47565 -21.38457,-38.34915 -13.71344,-49.315173 2.28449,-3.264739 8.08322,-6.619935 22.63975,-4.813746 z m -17.6439,-61.786457 c 21.33372,0.471206 38.20903,8.452138 50.15767,23.719908 9.16397,11.710965 -0.92704,64.997988 -30.14001,110.968608 -0.28852,-0.36656 -0.58236,-0.73666 -0.88625,-1.11623 -0.1212,-0.15194 -0.24476,-0.30625 -0.36951,-0.46234 7.54875,-12.46714 6.07246,-24.80184 4.75876,-35.73831 -0.53979,-4.48798 -1.04942,-8.72705 -0.91994,-12.708357 0.1342,-4.221339 0.69232,-7.840221 1.23152,-11.340267 0.66394,-4.313571 1.33853,-8.77613 1.15229,-14.037432 0.13894,-0.551612 0.19511,-1.203733 0.12239,-1.977645 -0.47535,-5.045506 -6.23505,-20.143593 -17.97558,-33.810919 -6.42128,-7.474254 -15.78686,-15.839483 -28.57386,-21.481533 5.50016,-1.13988 13.02171,-2.202901 21.44252,-2.015483 z M 66.674106,175.77799 c -5.899824,7.09351 -9.97454,5.73429 -11.314254,5.28791 C 46.629247,178.15353 36.499806,159.70202 27.568776,130.44175 19.840887,105.12377 15.324527,79.665072 14.967427,72.526042 13.838781,49.948379 19.311741,34.212952 31.234956,25.757266 c 19.403972,-13.760739 51.30642,-5.524398 64.12534,-1.346809 -0.184462,0.181506 -0.376019,0.351779 -0.558707,0.53624 -21.035159,21.244453 -20.536166,57.540878 -20.48473,59.759151 -0.0018,0.856092 0.06977,2.068101 0.168499,3.735353 0.361829,6.104388 1.035233,17.466529 -0.763862,30.333929 -1.672572,11.95692 2.013118,23.6602 10.110523,32.10879 0.838355,0.87442 1.713367,1.69563 2.617348,2.46836 -3.604693,3.8601 -11.43782,12.3956 -19.775261,22.42571 z m 22.478929,-29.99338 c -6.526522,-6.80913 -9.490328,-16.28113 -8.132878,-25.98903 1.900194,-13.59283 1.198411,-25.430906 0.821801,-31.790702 -0.05262,-0.889792 -0.09933,-1.669617 -0.127113,-2.285081 3.073183,-2.724361 17.313996,-10.355289 27.469455,-8.028231 4.63519,1.061838 7.45829,4.217201 8.63246,9.64582 6.0766,28.102654 0.80465,39.815984 -3.43147,49.228264 -0.87323,1.93922 -1.69799,3.77201 -2.40273,5.66866 l -0.5457,1.46564 c -1.38228,3.70639 -2.66819,7.15204 -3.46517,10.42447 -6.93742,-0.0213 -13.686831,-2.9845 -18.818655,-8.33981 z m 1.064794,37.90041 c -2.025533,-0.50608 -3.847686,-1.38523 -4.916619,-2.11421 0.892748,-0.42036 2.481959,-0.99148 5.237654,-1.55906 13.337426,-2.74624 15.396656,-4.68368 19.894686,-10.3949 1.03169,-1.30897 2.20054,-2.79353 3.81931,-4.6015 5.9e-4,-0.001 0.001,-0.002 0.002,-0.002 2.41161,-2.69953 3.51424,-2.24192 5.51435,-1.41244 1.62113,0.67104 3.1997,2.70249 3.84,4.9385 0.30271,1.05592 0.64325,3.06076 -0.47002,4.61982 -9.39633,13.15592 -23.08789,12.98683 -32.921131,10.52615 z m 69.798721,64.95247 c -16.31601,3.4959 -22.09286,-4.82912 -25.89975,-14.34605 -2.45712,-6.14459 -3.6644,-33.85113 -2.80772,-64.44756 0.0112,-0.40735 -0.0467,-0.80052 -0.15904,-1.17003 -0.0975,-0.71361 -0.24772,-1.43549 -0.45583,-2.16211 -1.27468,-4.45192 -4.3792,-8.17604 -8.10391,-9.71972 -1.47983,-0.6131 -4.19651,-1.7382 -7.46066,-0.90339 0.69647,-2.86803 1.90375,-6.10616 3.21212,-9.6133 l 0.54925,-1.4757 c 0.61842,-1.66311 1.39352,-3.38594 2.21413,-5.20927 4.433,-9.84861 10.50428,-23.33739 3.91509,-53.81085 -2.46836,-11.413579 -10.71002,-16.987048 -23.20436,-15.692859 -7.490808,0.775095 -14.343094,3.797432 -17.76096,5.53031 -0.734891,0.372471 -1.407113,0.731935 -2.034993,1.082531 0.953644,-11.50049 4.558337,-32.992074 18.040613,-46.589635 8.4882,-8.560924 19.79358,-12.788767 33.56792,-12.561146 27.14014,0.444601 44.544,14.372656 54.36601,25.978975 8.46337,10.001737 13.04654,20.076194 14.87578,25.509543 -13.75482,-1.398245 -23.10976,1.317247 -27.85256,8.096813 -10.31686,14.747492 5.64442,43.372198 13.31555,57.128798 1.40652,2.52157 2.62089,4.70023 3.00282,5.62608 2.49793,6.05414 5.73192,10.09574 8.09327,13.04654 0.72366,0.90399 1.42603,1.78077 1.95991,2.54641 -4.16577,1.20136 -11.64889,3.97598 -10.96721,17.84668 -0.54984,6.96048 -4.46137,39.54639 -6.44789,51.05929 -2.62267,15.20983 -8.21978,20.87553 -23.95758,24.24965 z m 68.10428,-77.93693 c -4.25977,1.97765 -11.38875,3.46103 -18.16122,3.77911 -7.48016,0.35059 -11.28765,-0.83777 -12.18335,-1.56852 -0.42095,-8.6437 2.79708,-9.54709 6.20194,-10.5031 0.53506,-0.15076 1.05711,-0.29679 1.56083,-0.47297 0.31335,0.25481 0.65626,0.50786 1.03169,0.75558 6.01215,3.9683 16.73577,4.39634 31.87406,1.27172 0.0556,-0.0118 0.11115,-0.0225 0.16614,-0.0337 -2.0415,1.90907 -5.53563,4.47143 -10.49009,6.77188 z"
       fill="#ffffff"
       id="path5"
       style="display:inline;stroke-width:0.9999;stroke-dasharray:none" /></g><g
     id="g18"
     transform="matrix(0.75862069,0,0,0.75862069,237.93764,68.92319)"
     style="display:inline;stroke-width:1.08706;stroke-dasharray:none"><g
       transform="matrix(-0.49636351,0,0,0.49636351,-160.13952,12.256441)"
       id="g12"
       style="display:inline;stroke-width:2.19006;stroke-dasharray:none"><path
         d="M 2.2910506,38.748638 C 11.455253,74.409339 68.532296,65.245136 66.340856,29.484825 63.750973,-13.34786 -6.4747082,-5.0801556 2.2910506,38.748638"
         fill="#ffffff"
         id="path10"
         style="stroke-width:2.19006;stroke-dasharray:none" /><path
         d="M 67.336965,29.385214 C 66.7393,19.025681 62.157198,10.957198 54.58677,5.8770428 47.81323,1.2949416 38.848249,-0.49805448 29.982879,0.59766537 21.11751,1.7929961 12.949416,5.7774319 7.570428,12.052918 1.5937743,19.025681 -0.69727626,28.189883 1.3945525,38.748638 L 2.2910506,38.549416 1.3945525,38.748638 C 10.757977,75.405447 69.528405,66.540078 67.336965,29.385214 Z M 3.1875486,38.549416 C 1.1953307,28.488716 3.3867704,19.922179 8.9649805,13.447471 14.045136,7.570428 21.715175,3.6856031 30.182101,2.5898833 c 8.466926,-1.0957199 16.933852,0.5976653 23.30895,4.9805447 7.072373,4.781323 11.355642,12.25214 11.953307,22.113619 2.091829,34.764202 -53.39144,43.131517 -62.2568094,8.865369 z"
         fill="#000000"
         id="path11"
         style="stroke-width:2.19006;stroke-dasharray:none" /><ellipse
         fill="#000000"
         cx="18.029572"
         cy="32.871593"
         rx="9.6622572"
         ry="10.459144"
         id="ellipse11"
         style="stroke-width:2.19006;stroke-dasharray:none" /><ellipse
         fill="#ffffff"
         cx="22.412451"
         cy="35.262257"
         rx="2.2910507"
         ry="2.6894941"
         id="ellipse12"
         style="stroke-width:2.19006;stroke-dasharray:none" /></g><g
       transform="matrix(0.43254339,0,0,0.43254339,-76.702374,12.055286)"
       id="g14"
       style="display:inline;stroke-width:2.51319;stroke-dasharray:none"><path
         d="M 1.1953307,35.959533 C 8.2677043,76.899611 75.206226,66.042023 65.543969,24.803113 56.877821,-12.25214 -1.1953307,-1.9922179 1.1953307,35.959533"
         fill="#ffffff"
         id="path12"
         style="stroke-width:2.51319;stroke-dasharray:none" /><path
         d="M 66.440467,24.603891 C 57.575097,-13.547082 -2.1914397,-3.0879377 0.19922179,36.059144 v 0.09961 C 3.4863813,55.483268 20.719066,65.344747 39.744747,62.157198 48.410895,60.663035 56.180545,56.479377 61.2607,50.303502 66.83891,43.43035 68.831128,34.56498 66.440467,24.603891 Z m -6.67393,24.50428 C 54.985214,54.885603 47.713619,58.870039 39.445914,60.264591 21.416342,63.252918 5.2793774,53.989105 2.0918288,35.859922 -0.09961089,-0.99610895 56.280156,-10.857587 64.647471,25.002335 66.83891,34.46537 65.045914,42.733074 59.766537,49.108171 Z"
         fill="#000000"
         id="path13"
         style="stroke-width:2.51319;stroke-dasharray:none" /><ellipse
         fill="#000000"
         cx="17.631128"
         cy="34.166538"
         rx="9.4630346"
         ry="10.459144"
         id="ellipse13"
         style="stroke-width:2.51319;stroke-dasharray:none" /><ellipse
         fill="#ffffff"
         cx="22.014008"
         cy="36.557198"
         rx="2.1914396"
         ry="2.6894941"
         id="ellipse14"
         style="stroke-width:2.51319;stroke-dasharray:none" /></g><g
       id="g6"
       transform="matrix(-1,0,0,1,-209.97924,-3.2393617)"><g
         transform="matrix(1.1719184,0,0,1.1719184,-125.38753,201.10317)"
         id="g9"
         style="display:inline;stroke-width:0.927594;stroke-dasharray:none"><path
           d="m 29.982879,7.1719844 c 0.09961,5.0801556 1.09572,10.6583656 0.199222,16.0373536 -1.394552,2.589884 -3.984436,2.888716 -6.275486,3.884825 -3.187549,-0.498054 -5.877043,-2.589883 -7.171985,-5.57821 -0.796887,-6.076264 0.199222,-11.8536962 0.498055,-17.9299608 0,-0.1992218 3.785214,0.099611 7.171984,1.0957199 2.888716,0.896498 5.57821,2.3906614 5.57821,2.4902723 z"
           fill="#ffffff"
           id="path7"
           style="stroke-width:0.927594;stroke-dasharray:none" /><path
           d="M 1.7929961,7.570428 C -0.99610895,18.129183 5.4785992,35.361868 16.136965,21.217121 15.340078,15.240467 16.236576,9.463035 16.535409,3.5859922 16.635019,3.0879377 1.892607,6.8731517 1.7929961,7.570428 Z"
           fill="#ffffff"
           id="path8"
           style="stroke-width:0.927594;stroke-dasharray:none" /><path
           d="M 31.17821,11.853697 C 30.978988,8.8653697 30.879377,7.6700389 30.879377,6.1758755 V 5.4785992 L 30.182101,5.2793774 17.631128,1.3945525 V 0.69727626 l -1.294941,0.29883269 h -0.09961 V 1.0957198 L 2.0918288,4.6817121 1.5937743,4.781323 1.3945525,5.2793774 C -0.79688716,10.558755 -0.29883269,18.527626 2.4902724,23.40856 5.677821,28.98677 10.857587,29.086381 16.136965,22.711284 17.631128,25.6 20.420233,27.592218 23.607782,28.090272 h 0.298833 l 0.298832,-0.09961 c 0.398444,-0.199222 0.796888,-0.298833 1.494164,-0.597666 0.09961,0 0.09961,0 0.199222,-0.09961 2.888716,-0.996109 4.084046,-1.792996 5.080155,-3.685603 l 0.09961,-0.09961 v -0.199222 c 0.298833,-1.792996 0.398444,-3.685603 0.398444,-5.777432 0,-1.494163 -0.09961,-2.888715 -0.298833,-5.67782 z M 15.240467,8.1680934 c -0.09961,1.7929961 -0.199222,2.4902726 -0.298833,3.4863816 -0.199221,3.685603 -0.199221,6.474708 0.09961,9.263813 C 10.359533,26.894942 6.67393,26.894942 4.1836576,22.412451 1.7929961,18.228794 1.2949416,11.15642 3.0879377,6.4747082 L 15.638911,3.2871595 C 15.5393,4.5821012 15.439689,5.8770428 15.240467,8.1680934 Z M 29.185992,22.910506 c -0.697276,1.195331 -1.593774,1.792996 -3.984436,2.589883 -0.09961,0 -0.09961,0 -0.199221,0.09961 -0.597666,0.199222 -0.996109,0.398444 -1.294942,0.498054 -2.689494,-0.498054 -4.980545,-2.29105 -6.076265,-4.781323 -0.298832,-2.689494 -0.298832,-5.478599 -0.09961,-9.164202 0.09961,-0.996109 0.09961,-1.693385 0.298833,-3.4863811 0.199222,-2.2910506 0.298833,-3.6856032 0.298833,-4.9805448 L 28.98677,6.9727626 c 0,1.2949417 0.09961,2.4902724 0.298833,5.0801554 0.199222,2.689495 0.298833,4.084047 0.298833,5.677821 0,1.892607 -0.09961,3.585992 -0.398444,5.179767 z"
           fill="#000000"
           id="path9"
           style="display:inline;fill:#1a1a1a;stroke-width:0.927594;stroke-dasharray:none" /></g><g
         transform="matrix(1.1719184,0,0,1.1719184,-136.40185,170.0474)"
         id="g17"
         style="display:inline;stroke-width:0.927594;stroke-dasharray:none"><path
           d="M 13.248249,12.550973 C 5.3789883,13.248249 -0.99610895,22.512062 3.0879377,29.883268 8.4669261,39.645136 20.519844,28.98677 27.990662,29.982878 36.656809,30.1821 43.729183,39.147081 50.602335,31.576653 58.272373,23.209337 47.315175,15.041244 38.649027,11.455252 Z"
           fill="#f6d2a2"
           id="path14"
           style="stroke-width:0.927594;stroke-dasharray:none" /><path
           d="M 51.598444,19.224903 C 48.908949,15.838132 44.227237,12.750195 39.147082,10.658366 L 38.94786,10.558755 H 38.748638 L 13.248249,11.554864 C 4.3828794,12.351751 -1.9922179,22.611673 2.2910506,30.381323 c 1.6933852,2.988327 3.9844358,4.48249 7.0723735,4.681712 2.2910509,0.09961 4.6817119,-0.398444 8.3673149,-1.693385 0.298833,-0.09961 0.697277,-0.199222 1.195331,-0.398444 4.980545,-1.693385 6.972763,-2.19144 8.964981,-1.892607 h 0.09961 c 2.390661,0 4.382879,0.697277 8.168093,2.19144 4.183658,1.693385 5.478599,2.19144 7.570428,2.390661 2.888716,0.199222 5.378988,-0.796887 7.670039,-3.287159 3.884825,-4.283269 3.685603,-8.86537 0.199222,-13.148638 z m -1.693386,11.754085 c -1.892607,2.091829 -3.785214,2.789105 -6.076264,2.689495 -1.792996,-0.09961 -2.988327,-0.597666 -6.972763,-2.19144 C 32.871595,29.783658 30.680156,29.185992 28.090272,29.086381 25.6,28.787549 23.508171,29.285603 18.228794,31.078599 17.730739,31.277821 17.332296,31.377432 17.033463,31.477043 9.7618677,33.967315 6.2754864,33.768093 3.8848249,29.385214 0.29883269,22.910506 5.7774319,14.144747 13.248249,13.447471 l 25.201556,-0.996109 c 4.781323,1.992218 9.064592,4.880934 11.554864,7.968871 2.988327,3.585993 3.087938,7.171985 -0.09961,10.558755 z"
           fill="#231f20"
           id="path15"
           style="stroke-width:0.927594;stroke-dasharray:none" /><g
           transform="translate(11.953307)"
           fill="#000000"
           id="g16"
           style="stroke-width:0.927594;stroke-dasharray:none"><path
             d="M 28.687938,8.2677043 C 25.6,-3.0879377 -0.29883269,-1.3945525 0.29883269,12.152529 1.5937743,22.21323 31.676265,19.523735 28.687938,8.2677043 Z"
             id="path16"
             style="stroke-width:0.927594;stroke-dasharray:none" /></g></g></g></g><rect
     style="fill:none;stroke:none;stroke-width:0.33"
     width="77.947235"
     height="77.947235"
     x="4.936626"
     y="192.63394"
     id="rect116" /></svg>
